# xmcd
#
# Track frame offsets:
#	150
#	15902
#	34372
#
# Disc length: 472 seconds
#
# Revision: 0
# Processed by: cddbd v1.5.2PL0 Copyright (c) Steve Scherf et al.
# Submitted via: dBpowerAMP V4.0
#
DISCID=1801d603
DTITLE=Tanya Tucker - CD Promo
DYEAR=1997
DGENRE=Country
TTITLE0=Little Things (Single Edit)
TTITLE1=Little Things (Album Version)
TTITLE2=Suggested Research Hook
EXTD=CD Promo
EXTT0=
EXTT1=
EXTT2=
PLAYORDER=
